<svg width="30" height="47" viewBox="0 0 30 47" fill="none" xmlns="http://www.w3.org/2000/svg">
<g filter="url(#filter0_i_1422_573)">
<path fill-rule="evenodd" clip-rule="evenodd" d="M4.0392 0.24748C3.79374 0.446416 3.69361 0.825709 3.59184 1.94139C3.41264 3.90806 3.24642 4.12607 1.85962 4.21436C0.160446 4.32254 -0.158179 4.97623 0.0613079 7.90388L0.176887 9.44489H15.018H29.8593L29.9637 7.9241C30.1465 5.25852 29.6597 4.35049 28.0455 4.34572C26.7524 4.34194 26.7123 4.28473 26.6025 2.29142C26.537 1.10389 26.4315 0.476174 26.2702 0.314723C25.897 -0.0584866 4.49675 -0.1231 4.0392 0.24748ZM2.56658 11.0479C2.53074 11.1156 2.96626 17.4229 3.53413 25.0638C4.10217 32.7048 4.5709 39.2709 4.576 39.6552C4.58471 40.3174 4.61052 40.3539 5.07104 40.3539C5.63496 40.3539 5.59024 40.1908 5.99683 43.7243C6.14249 44.9903 6.28405 46.0496 6.31134 46.0782C6.43925 46.2125 8.11558 45.2073 9.02328 44.452C11.876 42.0777 13.5695 38.1349 13.8997 33.0988L14.006 31.4758H13.0972C12.0963 31.4758 11.9236 31.3546 11.702 30.4957L11.555 29.9267L10.6597 30.8246C10.1671 31.3184 9.67911 31.8704 9.57537 32.0512C9.25872 32.603 8.97955 31.6136 9.06504 30.2427C9.14922 28.8896 9.5323 28.0418 10.4701 27.1316C11.0697 26.5497 11.1328 26.4042 11.2344 25.3724C11.4758 22.924 12.4606 20.4109 13.949 18.4463C14.9787 17.087 15.0542 17.084 16.0163 18.3641C17.5565 20.4128 18.5081 22.852 18.6753 25.1787C18.769 26.4838 18.791 26.542 19.367 27.0048C20.5984 27.9944 21.2823 30.0808 20.8731 31.5991C20.6512 32.4223 20.5349 32.4596 20.1617 31.8276C20.009 31.569 19.5721 31.0756 19.1909 30.7313L18.4979 30.1053L18.2069 30.7905L17.9159 31.4758H17.0049H16.0939L16.0945 32.6678C16.0968 36.9081 17.699 41.1347 20.2863 43.7266C21.4852 44.9276 23.526 46.2937 23.7649 46.055C23.8116 46.0083 24.0054 44.7063 24.1957 43.162L24.5416 40.3539H24.996C25.5861 40.3539 25.4575 41.5132 26.5355 26.4613C27.0408 19.4081 27.4983 13.0269 27.5526 12.281L27.6511 10.9246H15.1415C8.26108 10.9246 2.60242 10.9801 2.56658 11.0479Z" fill="#8047F8"/>
</g>
<defs>
<filter id="filter0_i_1422_573" x="0" y="0" width="30" height="50.0903" filterUnits="userSpaceOnUse" color-interpolation-filters="sRGB">
<feFlood flood-opacity="0" result="BackgroundImageFix"/>
<feBlend mode="normal" in="SourceGraphic" in2="BackgroundImageFix" result="shape"/>
<feColorMatrix in="SourceAlpha" type="matrix" values="0 0 0 0 0 0 0 0 0 0 0 0 0 0 0 0 0 0 127 0" result="hardAlpha"/>
<feOffset dy="4"/>
<feGaussianBlur stdDeviation="2"/>
<feComposite in2="hardAlpha" operator="arithmetic" k2="-1" k3="1"/>
<feColorMatrix type="matrix" values="0 0 0 0 0 0 0 0 0 0 0 0 0 0 0 0 0 0 0.25 0"/>
<feBlend mode="normal" in2="shape" result="effect1_innerShadow_1422_573"/>
</filter>
</defs>
</svg>
